STARTFONT 2.1
FONT -Adobe-Utopia-Bold-I-Normal--12-120-75-75-P-70-ISO8859-2
SIZE 12 75 75
FONTBOUNDINGBOX 19 13 -3 -3
STARTPROPERTIES 29
FOUNDRY "Adobe"
FAMILY_NAME "Utopia"
WEIGHT_NAME "Bold"
SLANT "I"
SETWIDTH_NAME "Normal"
ADD_STYLE_NAME ""
PIXEL_SIZE 12
POINT_SIZE 120
RESOLUTION_X 75
RESOLUTION_Y 75
SPACING "P"
AVERAGE_WIDTH 70
CHARSET_REGISTRY "ISO8859"
CHARSET_ENCODING "2"
CAP_HEIGHT 9
X_HEIGHT 6
RELATIVE_SETWIDTH 50
RELATIVE_WEIGHT 70
WEIGHT 208
FACE_NAME "Utopia Bold Italic"
COPYRIGHT "Copyright (c) 1989, 1991 Adobe Systems Incorporated.  All rights reserved., Copyright 1996 Cub Soft"
NOTICE "Utopia is a registered trademark of Adobe Systems Incorporated."
DESTINATION 0
FONT_ASCENT 10
FONT_DESCENT 3
DEFAULT_CHAR 32
_ADOBE_PSFONT "Utopia-BoldItalic"
_ADOBE_XFONT "-Adobe-Utopia-Bold-I-Normal--12-120-75-75-P-70-ISO8859-2"
_DEC_DEVICE_FONTNAMES "PS=Utopia-BoldItalic"
ENDPROPERTIES
CHARS 191
STARTCHAR space
ENCODING 32
SWIDTH 210 0
DWIDTH 3 0
BBX 0 0 0 0
BITMAP
ENDCHAR
STARTCHAR exclam
ENCODING 33
SWIDTH 285 0
DWIDTH 4 0
BBX 4 9 0 0
BITMAP
30
30
70
60
60
40
00
c0
c0
ENDCHAR
STARTCHAR quotedbl
ENCODING 34
SWIDTH 455 0
DWIDTH 6 0
BBX 5 4 1 5
BITMAP
d8
d8
90
90
ENDCHAR
STARTCHAR numbersign
ENCODING 35
SWIDTH 560 0
DWIDTH 7 0
BBX 7 9 0 0
BITMAP
14
14
7e
28
28
28
fc
50
50
ENDCHAR
STARTCHAR dollar
ENCODING 36
SWIDTH 560 0
DWIDTH 7 0
BBX 7 11 0 -1
BITMAP
08
3e
6a
68
78
38
3c
2c
ac
f8
20
ENDCHAR
STARTCHAR percent
ENCODING 37
SWIDTH 896 0
DWIDTH 11 0
BBX 10 9 1 0
BITMAP
7100
df00
9200
b400
edc0
0b40
1240
32c0
2380
ENDCHAR
STARTCHAR ampersand
ENCODING 38
SWIDTH 752 0
DWIDTH 10 0
BBX 10 9 0 0
BITMAP
1e00
3300
3200
1cc0
38c0
6c80
c700
c700
7980
ENDCHAR
STARTCHAR apostrophe
ENCODING 39
SWIDTH 246 0
DWIDTH 3 0
BBX 3 4 0 5
BITMAP
60
60
40
80
ENDCHAR
STARTCHAR parenleft
ENCODING 40
SWIDTH 350 0
DWIDTH 4 0
BBX 5 11 0 -2
BITMAP
18
30
60
60
c0
c0
c0
c0
c0
60
20
ENDCHAR
STARTCHAR parenright
ENCODING 41
SWIDTH 350 0
DWIDTH 5 0
BBX 5 11 -1 -2
BITMAP
20
30
18
18
18
18
18
30
30
60
c0
ENDCHAR
STARTCHAR asterisk
ENCODING 42
SWIDTH 500 0
DWIDTH 6 0
BBX 6 6 0 3
BITMAP
10
54
38
70
a8
20
ENDCHAR
STARTCHAR plus
ENCODING 43
SWIDTH 600 0
DWIDTH 7 0
BBX 6 5 0 1
BITMAP
30
30
fc
30
30
ENDCHAR
STARTCHAR comma
ENCODING 44
SWIDTH 280 0
DWIDTH 3 0
BBX 3 4 -1 -2
BITMAP
60
60
40
80
ENDCHAR
STARTCHAR minus
ENCODING 45
SWIDTH 600 0
DWIDTH 7 0
BBX 6 1 0 3
BITMAP
fc
ENDCHAR
STARTCHAR period
ENCODING 46
SWIDTH 280 0
DWIDTH 3 0
BBX 2 2 0 0
BITMAP
c0
c0
ENDCHAR
STARTCHAR slash
ENCODING 47
SWIDTH 260 0
DWIDTH 5 0
BBX 4 9 0 0
BITMAP
30
30
30
60
60
60
c0
c0
c0
ENDCHAR
STARTCHAR zero
ENCODING 48
SWIDTH 560 0
DWIDTH 7 0
BBX 7 9 0 0
BITMAP
3c
66
66
e6
c6
ce
cc
cc
78
ENDCHAR
STARTCHAR one
ENCODING 49
SWIDTH 560 0
DWIDTH 7 0
BBX 4 9 1 0
BITMAP
30
70
30
30
70
60
60
60
f0
ENDCHAR
STARTCHAR two
ENCODING 50
SWIDTH 560 0
DWIDTH 7 0
BBX 7 9 0 0
BITMAP
3c
66
66
0c
18
30
62
fc
fc
ENDCHAR
STARTCHAR three
ENCODING 51
SWIDTH 560 0
DWIDTH 7 0
BBX 7 9 0 0
BITMAP
3c
66
66
0c
38
0c
cc
cc
78
ENDCHAR
STARTCHAR four
ENCODING 52
SWIDTH 560 0
DWIDTH 7 0
BBX 7 9 0 0
BITMAP
18
18
30
2c
6c
cc
fe
18
3c
ENDCHAR
STARTCHAR five
ENCODING 53
SWIDTH 560 0
DWIDTH 7 0
BBX 7 9 0 0
BITMAP
3e
3e
60
78
4c
0c
cc
cc
78
ENDCHAR
STARTCHAR six
ENCODING 54
SWIDTH 560 0
DWIDTH 7 0
BBX 7 9 0 0
BITMAP
3c
66
60
60
f8
cc
cc
cc
78
ENDCHAR
STARTCHAR seven
ENCODING 55
SWIDTH 560 0
DWIDTH 7 0
BBX 6 9 1 0
BITMAP
fc
fc
88
10
30
30
60
60
60
ENDCHAR
STARTCHAR eight
ENCODING 56
SWIDTH 560 0
DWIDTH 7 0
BBX 7 9 0 0
BITMAP
3c
66
66
76
38
dc
cc
cc
78
ENDCHAR
STARTCHAR nine
ENCODING 57
SWIDTH 560 0
DWIDTH 7 0
BBX 7 9 0 0
BITMAP
3c
66
66
66
3e
0c
0c
cc
78
ENDCHAR
STARTCHAR colon
ENCODING 58
SWIDTH 280 0
DWIDTH 3 0
BBX 3 6 0 0
BITMAP
60
60
00
00
c0
c0
ENDCHAR
STARTCHAR semicolon
ENCODING 59
SWIDTH 280 0
DWIDTH 3 0
BBX 4 8 -1 -2
BITMAP
30
30
00
00
60
60
40
80
ENDCHAR
STARTCHAR less
ENCODING 60
SWIDTH 600 0
DWIDTH 7 0
BBX 6 5 0 1
BITMAP
0c
30
c0
30
0c
ENDCHAR
STARTCHAR equal
ENCODING 61
SWIDTH 600 0
DWIDTH 7 0
BBX 6 3 0 2
BITMAP
fc
00
fc
ENDCHAR
STARTCHAR greater
ENCODING 62
SWIDTH 600 0
DWIDTH 7 0
BBX 6 5 0 1
BITMAP
c0
30
0c
30
c0
ENDCHAR
STARTCHAR question
ENCODING 63
SWIDTH 454 0
DWIDTH 6 0
BBX 5 9 0 0
BITMAP
70
d8
18
70
c0
e0
00
c0
c0
ENDCHAR
STARTCHAR at
ENCODING 64
SWIDTH 828 0
DWIDTH 11 0
BBX 10 9 0 0
BITMAP
1f00
2080
4f40
9b40
b640
ae80
b700
4000
3f00
ENDCHAR
STARTCHAR A
ENCODING 65
SWIDTH 634 0
DWIDTH 8 0
BBX 9 9 -1 0
BITMAP
0600
0e00
0e00
1600
1300
3f00
2300
4300
e780
ENDCHAR
STARTCHAR B
ENCODING 66
SWIDTH 680 0
DWIDTH 9 0
BBX 8 9 0 0
BITMAP
7e
33
33
36
7e
63
63
67
fe
ENDCHAR
STARTCHAR C
ENCODING 67
SWIDTH 672 0
DWIDTH 8 0
BBX 8 9 0 0
BITMAP
1f
73
61
e0
e0
c0
c2
c6
7c
ENDCHAR
STARTCHAR D
ENCODING 68
SWIDTH 774 0
DWIDTH 10 0
BBX 9 9 0 0
BITMAP
7f00
3180
3180
3180
7380
6380
6300
6700
fc00
ENDCHAR
STARTCHAR E
ENCODING 69
SWIDTH 622 0
DWIDTH 8 0
BBX 8 9 0 0
BITMAP
7f
33
31
34
7c
64
62
66
fe
ENDCHAR
STARTCHAR F
ENCODING 70
SWIDTH 585 0
DWIDTH 7 0
BBX 8 9 0 0
BITMAP
7f
33
31
34
7c
64
60
60
f0
ENDCHAR
STARTCHAR G
ENCODING 71
SWIDTH 726 0
DWIDTH 9 0
BBX 8 9 1 0
BITMAP
1f
73
61
e0
e0
cf
c6
c6
7c
ENDCHAR
STARTCHAR H
ENCODING 72
SWIDTH 800 0
DWIDTH 10 0
BBX 10 9 0 0
BITMAP
7bc0
3180
3180
3180
7f80
6300
6300
6300
f780
ENDCHAR
STARTCHAR I
ENCODING 73
SWIDTH 386 0
DWIDTH 5 0
BBX 5 9 0 0
BITMAP
78
30
30
30
70
60
60
60
f0
ENDCHAR
STARTCHAR J
ENCODING 74
SWIDTH 388 0
DWIDTH 5 0
BBX 6 11 -1 -2
BITMAP
3c
18
18
18
38
30
30
30
30
60
c0
ENDCHAR
STARTCHAR K
ENCODING 75
SWIDTH 688 0
DWIDTH 9 0
BBX 9 9 0 0
BITMAP
7b80
3300
3200
3400
7c00
6e00
6600
6700
f380
ENDCHAR
STARTCHAR L
ENCODING 76
SWIDTH 586 0
DWIDTH 7 0
BBX 7 9 0 0
BITMAP
78
30
30
30
70
60
60
62
fe
ENDCHAR
STARTCHAR M
ENCODING 77
SWIDTH 921 0
DWIDTH 12 0
BBX 12 9 0 0
BITMAP
7070
30e0
38e0
3960
7ee0
5ec0
4cc0
4cc0
e9e0
ENDCHAR
STARTCHAR N
ENCODING 78
SWIDTH 741 0
DWIDTH 9 0
BBX 10 9 -1 0
BITMAP
71c0
3880
3880
2c80
6d00
4700
4700
4300
e300
ENDCHAR
STARTCHAR O
ENCODING 79
SWIDTH 761 0
DWIDTH 10 0
BBX 8 9 1 0
BITMAP
1e
73
63
e3
e7
c7
c6
ce
78
ENDCHAR
STARTCHAR P
ENCODING 80
SWIDTH 660 0
DWIDTH 8 0
BBX 8 9 0 0
BITMAP
7e
33
33
33
76
7c
60
60
f0
ENDCHAR
STARTCHAR Q
ENCODING 81
SWIDTH 761 0
DWIDTH 10 0
BBX 8 12 1 -3
BITMAP
1e
73
63
e3
e7
c7
c6
ce
78
30
38
1e
ENDCHAR
STARTCHAR R
ENCODING 82
SWIDTH 681 0
DWIDTH 9 0
BBX 9 9 0 0
BITMAP
7e00
3300
3300
3600
7e00
6600
6700
6300
f380
ENDCHAR
STARTCHAR S
ENCODING 83
SWIDTH 551 0
DWIDTH 7 0
BBX 7 9 0 0
BITMAP
3e
66
62
70
38
1c
8c
cc
f8
ENDCHAR
STARTCHAR T
ENCODING 84
SWIDTH 616 0
DWIDTH 8 0
BBX 8 9 0 0
BITMAP
ff
db
99
18
38
30
30
30
78
ENDCHAR
STARTCHAR U
ENCODING 85
SWIDTH 776 0
DWIDTH 10 0
BBX 9 9 1 0
BITMAP
f780
6300
6300
6300
e700
c600
c600
ce00
7c00
ENDCHAR
STARTCHAR V
ENCODING 86
SWIDTH 630 0
DWIDTH 8 0
BBX 8 9 0 0
BITMAP
f7
62
62
64
74
38
38
30
30
ENDCHAR
STARTCHAR W
ENCODING 87
SWIDTH 920 0
DWIDTH 12 0
BBX 13 9 0 0
BITMAP
f338
6310
6720
6720
6b40
6b40
7380
7380
6300
ENDCHAR
STARTCHAR X
ENCODING 88
SWIDTH 630 0
DWIDTH 8 0
BBX 8 9 0 0
BITMAP
7b
32
34
38
18
1c
2c
4c
de
ENDCHAR
STARTCHAR Y
ENCODING 89
SWIDTH 622 0
DWIDTH 8 0
BBX 8 9 1 0
BITMAP
f7
66
64
68
30
70
60
60
f0
ENDCHAR
STARTCHAR Z
ENCODING 90
SWIDTH 618 0
DWIDTH 8 0
BBX 8 9 0 0
BITMAP
7f
4e
0c
18
38
30
60
e2
fe
ENDCHAR
STARTCHAR bracketleft
ENCODING 91
SWIDTH 350 0
DWIDTH 4 0
BBX 5 11 0 -2
BITMAP
38
30
30
60
60
60
60
c0
c0
c0
e0
ENDCHAR
STARTCHAR backslash
ENCODING 92
SWIDTH 460 0
DWIDTH 6 0
BBX 4 9 1 0
BITMAP
c0
c0
c0
60
60
60
30
30
30
ENDCHAR
STARTCHAR bracketright
ENCODING 93
SWIDTH 350 0
DWIDTH 4 0
BBX 5 11 -1 -2
BITMAP
38
18
18
30
30
30
30
60
60
60
e0
ENDCHAR
STARTCHAR asciicircum
ENCODING 94
SWIDTH 600 0
DWIDTH 7 0
BBX 5 6 1 3
BITMAP
20
20
50
50
88
88
ENDCHAR
STARTCHAR underscore
ENCODING 95
SWIDTH 500 0
DWIDTH 6 0
BBX 6 1 0 -2
BITMAP
fc
ENDCHAR
STARTCHAR grave
ENCODING 96
SWIDTH 400 0
DWIDTH 5 0
BBX 3 2 1 7
BITMAP
c0
60
ENDCHAR
STARTCHAR a
ENCODING 97
SWIDTH 596 0
DWIDTH 7 0
BBX 7 6 0 0
BITMAP
3c
6c
cc
d8
da
6c
ENDCHAR
STARTCHAR b
ENCODING 98
SWIDTH 586 0
DWIDTH 7 0
BBX 7 10 0 0
BITMAP
70
30
70
60
6c
76
e6
ce
ec
d8
ENDCHAR
STARTCHAR c
ENCODING 99
SWIDTH 456 0
DWIDTH 6 0
BBX 6 6 0 0
BITMAP
38
6c
e0
c0
c8
70
ENDCHAR
STARTCHAR d
ENCODING 100
SWIDTH 609 0
DWIDTH 8 0
BBX 8 10 0 0
BITMAP
07
03
07
06
3e
66
ee
cc
dd
6e
ENDCHAR
STARTCHAR e
ENCODING 101
SWIDTH 476 0
DWIDTH 6 0
BBX 6 6 0 0
BITMAP
38
6c
f8
c0
c8
70
ENDCHAR
STARTCHAR f
ENCODING 102
SWIDTH 348 0
DWIDTH 4 0
BBX 8 13 -2 -3
BITMAP
07
0d
0c
0c
3e
18
18
18
38
30
30
b0
e0
ENDCHAR
STARTCHAR g
ENCODING 103
SWIDTH 522 0
DWIDTH 7 0
BBX 8 9 -1 -3
BITMAP
1f
36
36
3c
18
3c
6e
c6
7c
ENDCHAR
STARTCHAR h
ENCODING 104
SWIDTH 629 0
DWIDTH 8 0
BBX 8 10 0 0
BITMAP
70
30
30
70
6c
76
66
ee
cd
ce
ENDCHAR
STARTCHAR i
ENCODING 105
SWIDTH 339 0
DWIDTH 4 0
BBX 4 9 0 0
BITMAP
30
30
00
e0
60
60
e0
d0
e0
ENDCHAR
STARTCHAR j
ENCODING 106
SWIDTH 333 0
DWIDTH 4 0
BBX 7 12 -3 -3
BITMAP
06
06
00
1c
0c
1c
18
18
18
30
b0
e0
ENDCHAR
STARTCHAR k
ENCODING 107
SWIDTH 570 0
DWIDTH 7 0
BBX 7 10 0 0
BITMAP
70
30
70
60
64
6c
f0
f8
de
cc
ENDCHAR
STARTCHAR l
ENCODING 108
SWIDTH 327 0
DWIDTH 4 0
BBX 4 10 0 0
BITMAP
70
30
70
60
60
60
e0
c0
d0
e0
ENDCHAR
STARTCHAR m
ENCODING 109
SWIDTH 914 0
DWIDTH 12 0
BBX 12 6 0 0
BITMAP
ecc0
7760
6660
eee0
ccd0
cce0
ENDCHAR
STARTCHAR n
ENCODING 110
SWIDTH 635 0
DWIDTH 8 0
BBX 8 6 0 0
BITMAP
ec
76
66
ee
cd
ce
ENDCHAR
STARTCHAR o
ENCODING 111
SWIDTH 562 0
DWIDTH 7 0
BBX 6 6 0 0
BITMAP
38
6c
ec
dc
d8
70
ENDCHAR
STARTCHAR p
ENCODING 112
SWIDTH 606 0
DWIDTH 8 0
BBX 8 9 -1 -3
BITMAP
76
3b
73
67
76
6c
e0
c0
c0
ENDCHAR
STARTCHAR q
ENCODING 113
SWIDTH 584 0
DWIDTH 7 0
BBX 7 10 0 -3
BITMAP
02
3e
66
ee
cc
dc
ec
18
18
18
ENDCHAR
STARTCHAR r
ENCODING 114
SWIDTH 440 0
DWIDTH 6 0
BBX 6 6 0 0
BITMAP
ec
7c
60
e0
c0
c0
ENDCHAR
STARTCHAR s
ENCODING 115
SWIDTH 417 0
DWIDTH 5 0
BBX 6 6 -1 0
BITMAP
1c
34
30
18
d8
70
ENDCHAR
STARTCHAR t
ENCODING 116
SWIDTH 359 0
DWIDTH 5 0
BBX 4 8 0 0
BITMAP
20
60
f0
60
e0
c0
d0
e0
ENDCHAR
STARTCHAR u
ENCODING 117
SWIDTH 634 0
DWIDTH 8 0
BBX 8 6 0 0
BITMAP
e6
66
ee
cc
dd
6e
ENDCHAR
STARTCHAR v
ENCODING 118
SWIDTH 518 0
DWIDTH 7 0
BBX 6 6 0 0
BITMAP
ec
6c
ec
c8
d0
60
ENDCHAR
STARTCHAR w
ENCODING 119
SWIDTH 795 0
DWIDTH 10 0
BBX 10 6 0 0
BITMAP
e6c0
66c0
ecc0
cc80
dd00
6600
ENDCHAR
STARTCHAR x
ENCODING 120
SWIDTH 516 0
DWIDTH 6 0
BBX 6 6 0 0
BITMAP
64
bc
30
30
f4
98
ENDCHAR
STARTCHAR y
ENCODING 121
SWIDTH 489 0
DWIDTH 6 0
BBX 7 9 -1 -3
BITMAP
76
36
34
38
38
30
30
a0
c0
ENDCHAR
STARTCHAR z
ENCODING 122
SWIDTH 466 0
DWIDTH 6 0
BBX 5 6 0 0
BITMAP
78
f0
20
40
f8
b0
ENDCHAR
STARTCHAR braceleft
ENCODING 123
SWIDTH 340 0
DWIDTH 4 0
BBX 5 11 0 -2
BITMAP
18
30
30
30
60
c0
60
60
c0
c0
60
ENDCHAR
STARTCHAR bar
ENCODING 124
SWIDTH 265 0
DWIDTH 3 0
BBX 2 9 0 0
BITMAP
c0
c0
c0
c0
c0
c0
c0
c0
c0
ENDCHAR
STARTCHAR braceright
ENCODING 125
SWIDTH 340 0
DWIDTH 4 0
BBX 5 11 -1 -2
BITMAP
30
18
18
30
30
18
30
60
60
60
c0
ENDCHAR
STARTCHAR asciitilde
ENCODING 126
SWIDTH 600 0
DWIDTH 7 0
BBX 6 2 0 3
BITMAP
74
b8
ENDCHAR
STARTCHAR nobreakspace
ENCODING 160
SWIDTH 210 0
DWIDTH 3 0
BBX 0 0 0 0
BITMAP
ENDCHAR
STARTCHAR Aogonek
ENCODING 161
SWIDTH 634 0
DWIDTH 8 0
BBX 9 12 -1 -3
BITMAP
0600
0e00
0e00
1600
1300
3f00
2300
4300
e780
0400
0800
0c00
ENDCHAR
STARTCHAR breve
ENCODING 162
SWIDTH 400 0
DWIDTH 5 0
BBX 4 2 1 7
BITMAP
90
60
ENDCHAR
STARTCHAR Lstroke
ENCODING 163
SWIDTH 592 0
DWIDTH 7 0
BBX 7 9 0 0
BITMAP
78
30
30
30
f8
60
60
62
fe
ENDCHAR
STARTCHAR currency
ENCODING 164
SWIDTH 560 0
DWIDTH 7 0
BBX 6 8 0 0
BITMAP
84
78
cc
84
84
cc
78
84
ENDCHAR
STARTCHAR Lcaron
ENCODING 165
SWIDTH 720 0
DWIDTH 9 0
BBX 9 10 0 0
BITMAP
0180
7980
3100
3200
3000
7000
6000
6000
6200
fe00
ENDCHAR
STARTCHAR Sacute
ENCODING 166
SWIDTH 551 0
DWIDTH 7 0
BBX 7 12 0 0
BITMAP
0c
18
00
3e
66
62
70
38
1c
8c
cc
f8
ENDCHAR
STARTCHAR section
ENCODING 167
SWIDTH 568 0
DWIDTH 7 0
BBX 6 11 0 -2
BITMAP
1c
24
60
b0
98
cc
64
34
18
90
e0
ENDCHAR
STARTCHAR diaeresis
ENCODING 168
SWIDTH 400 0
DWIDTH 5 0
BBX 3 2 1 7
BITMAP
a0
a0
ENDCHAR
STARTCHAR Scaron
ENCODING 169
SWIDTH 551 0
DWIDTH 7 0
BBX 7 12 0 0
BITMAP
34
18
00
3e
66
62
70
38
1c
8c
cc
f8
ENDCHAR
STARTCHAR Scedilla
ENCODING 170
SWIDTH 551 0
DWIDTH 7 0
BBX 7 12 0 -3
BITMAP
3e
66
62
70
38
1c
8c
cc
f8
10
18
30
ENDCHAR
STARTCHAR Tcaron
ENCODING 171
SWIDTH 616 0
DWIDTH 8 0
BBX 8 12 0 0
BITMAP
34
18
00
ff
db
99
18
38
30
30
30
78
ENDCHAR
STARTCHAR Zacute
ENCODING 172
SWIDTH 618 0
DWIDTH 8 0
BBX 8 12 0 0
BITMAP
06
0c
00
7f
4e
0c
18
38
30
60
e2
fe
ENDCHAR
STARTCHAR hyphen
ENCODING 173
SWIDTH 392 0
DWIDTH 5 0
BBX 3 1 1 3
BITMAP
e0
ENDCHAR
STARTCHAR Zcaron
ENCODING 174
SWIDTH 618 0
DWIDTH 8 0
BBX 8 12 0 0
BITMAP
1a
0c
00
7f
4e
0c
18
38
30
60
e2
fe
ENDCHAR
STARTCHAR Zabovedot
ENCODING 175
SWIDTH 618 0
DWIDTH 8 0
BBX 8 12 0 0
BITMAP
08
08
00
7f
4e
0c
18
38
30
60
e2
fe
ENDCHAR
STARTCHAR degree
ENCODING 176
SWIDTH 375 0
DWIDTH 6 0
BBX 4 4 1 5
BITMAP
60
90
90
60
ENDCHAR
STARTCHAR aogonek
ENCODING 177
SWIDTH 596 0
DWIDTH 7 0
BBX 7 9 0 -3
BITMAP
3c
6c
cc
d8
da
6c
08
10
18
ENDCHAR
STARTCHAR ogonek
ENCODING 178
SWIDTH 350 0
DWIDTH 4 0
BBX 2 3 0 -3
BITMAP
40
80
c0
ENDCHAR
STARTCHAR lstroke
ENCODING 179
SWIDTH 339 0
DWIDTH 4 0
BBX 4 10 0 0
BITMAP
70
30
70
60
f0
60
e0
c0
d0
e0
ENDCHAR
STARTCHAR acute
ENCODING 180
SWIDTH 400 0
DWIDTH 5 0
BBX 3 2 1 7
BITMAP
60
c0
ENDCHAR
STARTCHAR lcaron
ENCODING 181
SWIDTH 640 0
DWIDTH 8 0
BBX 8 11 0 0
BITMAP
03
73
32
74
60
60
60
e0
c0
d0
e0
ENDCHAR
STARTCHAR sacute
ENCODING 182
SWIDTH 417 0
DWIDTH 5 0
BBX 6 9 -1 0
BITMAP
0c
18
00
1c
34
30
18
d8
70
ENDCHAR
STARTCHAR caron
ENCODING 183
SWIDTH 400 0
DWIDTH 5 0
BBX 4 2 1 7
BITMAP
d0
60
ENDCHAR
STARTCHAR cedilla
ENCODING 184
SWIDTH 400 0
DWIDTH 4 0
BBX 3 3 0 -3
BITMAP
40
60
c0
ENDCHAR
STARTCHAR scaron
ENCODING 185
SWIDTH 417 0
DWIDTH 5 0
BBX 6 9 -1 0
BITMAP
34
18
00
1c
34
30
18
d8
70
ENDCHAR
STARTCHAR scedilla
ENCODING 186
SWIDTH 417 0
DWIDTH 5 0
BBX 6 9 -1 -3
BITMAP
1c
34
30
18
d8
70
20
30
60
ENDCHAR
STARTCHAR tcaron
ENCODING 187
SWIDTH 640 0
DWIDTH 8 0
BBX 7 11 0 0
BITMAP
06
06
04
28
60
f0
60
e0
c0
d0
e0
ENDCHAR
STARTCHAR zacute
ENCODING 188
SWIDTH 466 0
DWIDTH 6 0
BBX 5 9 0 0
BITMAP
18
30
00
78
f0
20
40
f8
b0
ENDCHAR
STARTCHAR doubleacute
ENCODING 189
SWIDTH 400 0
DWIDTH 6 0
BBX 6 2 0 7
BITMAP
6c
d8
ENDCHAR
STARTCHAR zcaron
ENCODING 190
SWIDTH 466 0
DWIDTH 6 0
BBX 5 9 0 0
BITMAP
68
30
00
78
f0
20
40
f8
b0
ENDCHAR
STARTCHAR zabovedot
ENCODING 191
SWIDTH 466 0
DWIDTH 6 0
BBX 5 9 0 0
BITMAP
20
20
00
78
f0
20
40
f8
b0
ENDCHAR
STARTCHAR Racute
ENCODING 192
SWIDTH 681 0
DWIDTH 9 0
BBX 9 12 0 0
BITMAP
0600
0c00
0000
7e00
3300
3300
3600
7e00
6600
6700
6300
f380
ENDCHAR
STARTCHAR Aacute
ENCODING 193
SWIDTH 634 0
DWIDTH 8 0
BBX 9 10 -1 0
BITMAP
0300
0600
0000
0600
0e00
1600
1300
3f00
4300
e780
ENDCHAR
STARTCHAR Acircumflex
ENCODING 194
SWIDTH 634 0
DWIDTH 8 0
BBX 9 10 -1 0
BITMAP
0600
0b00
0000
0600
0e00
1600
1300
3f00
4300
e780
ENDCHAR
STARTCHAR Abreve
ENCODING 195
SWIDTH 634 0
DWIDTH 8 0
BBX 9 12 -1 0
BITMAP
0900
0600
0000
0600
0e00
0e00
1600
1300
3f00
2300
4300
e780
ENDCHAR
STARTCHAR Adiaeresis
ENCODING 196
SWIDTH 634 0
DWIDTH 8 0
BBX 9 10 -1 0
BITMAP
0500
0500
0000
0600
0e00
1600
1300
3f00
4300
e780
ENDCHAR
STARTCHAR Lacute
ENCODING 197
SWIDTH 586 0
DWIDTH 7 0
BBX 7 12 0 0
BITMAP
18
30
00
78
30
30
30
70
60
60
62
fe
ENDCHAR
STARTCHAR Cacute
ENCODING 198
SWIDTH 672 0
DWIDTH 8 0
BBX 8 12 0 0
BITMAP
06
0c
00
1f
73
61
e0
e0
c0
c2
c6
7c
ENDCHAR
STARTCHAR Ccedilla
ENCODING 199
SWIDTH 672 0
DWIDTH 8 0
BBX 8 12 0 -3
BITMAP
1f
73
61
e0
e0
c0
c2
c6
7c
10
18
30
ENDCHAR
STARTCHAR Ccaron
ENCODING 200
SWIDTH 672 0
DWIDTH 8 0
BBX 8 12 0 0
BITMAP
1a
0c
00
1f
73
61
e0
e0
c0
c2
c6
7c
ENDCHAR
STARTCHAR Eacute
ENCODING 201
SWIDTH 622 0
DWIDTH 8 0
BBX 8 10 0 0
BITMAP
06
0c
00
7f
31
30
7c
60
62
fe
ENDCHAR
STARTCHAR Eogonek
ENCODING 202
SWIDTH 622 0
DWIDTH 8 0
BBX 8 12 0 -3
BITMAP
7f
33
31
34
7c
64
62
66
fe
08
10
18
ENDCHAR
STARTCHAR Ediaeresis
ENCODING 203
SWIDTH 622 0
DWIDTH 8 0
BBX 8 10 0 0
BITMAP
14
14
00
7f
31
30
7c
60
62
fe
ENDCHAR
STARTCHAR Ecaron
ENCODING 204
SWIDTH 622 0
DWIDTH 8 0
BBX 8 12 0 0
BITMAP
1a
0c
00
7f
33
31
34
7c
64
62
66
fe
ENDCHAR
STARTCHAR Iacute
ENCODING 205
SWIDTH 386 0
DWIDTH 5 0
BBX 5 10 0 0
BITMAP
18
30
00
78
30
30
70
60
60
f0
ENDCHAR
STARTCHAR Icircumflex
ENCODING 206
SWIDTH 386 0
DWIDTH 5 0
BBX 5 10 0 0
BITMAP
30
58
00
78
30
30
70
60
60
f0
ENDCHAR
STARTCHAR Dcaron
ENCODING 207
SWIDTH 774 0
DWIDTH 10 0
BBX 9 12 0 0
BITMAP
1a00
0c00
0000
7f00
3180
3180
3180
7380
6380
6300
6700
fc00
ENDCHAR
STARTCHAR Dstroke
ENCODING 208
SWIDTH 780 0
DWIDTH 10 0
BBX 9 9 0 0
BITMAP
7f00
3180
3180
3180
fb80
6380
6300
6700
fc00
ENDCHAR
STARTCHAR Nacute
ENCODING 209
SWIDTH 741 0
DWIDTH 9 0
BBX 10 12 -1 0
BITMAP
0300
0600
0000
71c0
3880
3880
2c80
6d00
4700
4700
4300
e300
ENDCHAR
STARTCHAR Ncaron
ENCODING 210
SWIDTH 741 0
DWIDTH 9 0
BBX 10 12 -1 0
BITMAP
0d00
0600
0000
71c0
3880
3880
2c80
6d00
4700
4700
4300
e300
ENDCHAR
STARTCHAR Oacute
ENCODING 211
SWIDTH 761 0
DWIDTH 10 0
BBX 8 10 1 0
BITMAP
06
0c
00
3e
63
e3
c3
c7
c6
7c
ENDCHAR
STARTCHAR Ocircumflex
ENCODING 212
SWIDTH 761 0
DWIDTH 10 0
BBX 8 10 1 0
BITMAP
0c
16
00
3e
63
e3
c3
c7
c6
7c
ENDCHAR
STARTCHAR Odoubleacute
ENCODING 213
SWIDTH 761 0
DWIDTH 10 0
BBX 8 12 1 0
BITMAP
1b
36
00
1e
73
63
e3
e7
c7
c6
ce
78
ENDCHAR
STARTCHAR Odiaeresis
ENCODING 214
SWIDTH 761 0
DWIDTH 10 0
BBX 8 10 1 0
BITMAP
14
14
00
3e
63
e3
c3
c7
c6
7c
ENDCHAR
STARTCHAR multiply
ENCODING 215
SWIDTH 600 0
DWIDTH 7 0
BBX 6 5 0 1
BITMAP
cc
78
30
78
cc
ENDCHAR
STARTCHAR Rcaron
ENCODING 216
SWIDTH 681 0
DWIDTH 9 0
BBX 9 12 0 0
BITMAP
1a00
0c00
0000
7e00
3300
3300
3600
7e00
6600
6700
6300
f380
ENDCHAR
STARTCHAR Uring
ENCODING 217
SWIDTH 776 0
DWIDTH 10 0
BBX 9 13 1 0
BITMAP
0c00
1200
0c00
0000
f780
6300
6300
6300
e700
c600
c600
ce00
7c00
ENDCHAR
STARTCHAR Uacute
ENCODING 218
SWIDTH 776 0
DWIDTH 10 0
BBX 9 10 1 0
BITMAP
0600
0c00
0000
f780
6300
6300
c600
c600
ce00
7c00
ENDCHAR
STARTCHAR Udoubleacute
ENCODING 219
SWIDTH 776 0
DWIDTH 10 0
BBX 9 12 1 0
BITMAP
1b00
3600
0000
f780
6300
6300
6300
e700
c600
c600
ce00
7c00
ENDCHAR
STARTCHAR Udiaeresis
ENCODING 220
SWIDTH 776 0
DWIDTH 10 0
BBX 9 10 1 0
BITMAP
0a00
0a00
0000
f780
6300
6300
c600
c600
ce00
7c00
ENDCHAR
STARTCHAR Yacute
ENCODING 221
SWIDTH 622 0
DWIDTH 8 0
BBX 8 10 1 0
BITMAP
0c
18
00
f7
62
64
68
30
60
f0
ENDCHAR
STARTCHAR Tcedilla
ENCODING 222
SWIDTH 616 0
DWIDTH 8 0
BBX 8 12 0 -3
BITMAP
ff
db
99
18
38
30
30
30
78
10
18
30
ENDCHAR
STARTCHAR ssharp
ENCODING 223
SWIDTH 628 0
DWIDTH 8 0
BBX 10 13 -2 -3
BITMAP
0780
0cc0
0cc0
0cc0
3d80
1b80
19c0
18c0
3ac0
3380
3000
b000
e000
ENDCHAR
STARTCHAR racute
ENCODING 224
SWIDTH 440 0
DWIDTH 6 0
BBX 6 9 0 0
BITMAP
18
30
00
ec
7c
60
e0
c0
c0
ENDCHAR
STARTCHAR aacute
ENCODING 225
SWIDTH 596 0
DWIDTH 7 0
BBX 7 9 0 0
BITMAP
06
0c
00
3c
6c
cc
d8
da
6c
ENDCHAR
STARTCHAR acircumflex
ENCODING 226
SWIDTH 596 0
DWIDTH 7 0
BBX 7 9 0 0
BITMAP
0c
16
00
3c
6c
cc
d8
da
6c
ENDCHAR
STARTCHAR abreve
ENCODING 227
SWIDTH 596 0
DWIDTH 7 0
BBX 7 9 0 0
BITMAP
24
18
00
3c
6c
cc
d8
da
6c
ENDCHAR
STARTCHAR adiaeresis
ENCODING 228
SWIDTH 596 0
DWIDTH 7 0
BBX 7 9 0 0
BITMAP
14
14
00
3c
6c
cc
d8
da
6c
ENDCHAR
STARTCHAR lacute
ENCODING 229
SWIDTH 327 0
DWIDTH 4 0
BBX 5 13 0 0
BITMAP
18
30
00
70
30
70
60
60
60
e0
c0
d0
e0
ENDCHAR
STARTCHAR cacute
ENCODING 230
SWIDTH 456 0
DWIDTH 6 0
BBX 6 9 0 0
BITMAP
0c
18
00
38
6c
e0
c0
c8
70
ENDCHAR
STARTCHAR ccedilla
ENCODING 231
SWIDTH 456 0
DWIDTH 6 0
BBX 6 9 0 -3
BITMAP
38
6c
e0
c0
c8
70
20
30
60
ENDCHAR
STARTCHAR ccaron
ENCODING 232
SWIDTH 456 0
DWIDTH 6 0
BBX 6 9 0 0
BITMAP
34
18
00
38
6c
e0
c0
c8
70
ENDCHAR
STARTCHAR eacute
ENCODING 233
SWIDTH 476 0
DWIDTH 6 0
BBX 6 9 0 0
BITMAP
0c
18
00
38
6c
f8
c0
c8
70
ENDCHAR
STARTCHAR eogonek
ENCODING 234
SWIDTH 476 0
DWIDTH 6 0
BBX 6 9 0 -3
BITMAP
38
6c
f8
c0
c8
70
10
20
30
ENDCHAR
STARTCHAR ediaeresis
ENCODING 235
SWIDTH 476 0
DWIDTH 6 0
BBX 6 9 0 0
BITMAP
28
28
00
38
6c
f8
c0
c8
70
ENDCHAR
STARTCHAR ecaron
ENCODING 236
SWIDTH 476 0
DWIDTH 6 0
BBX 6 9 0 0
BITMAP
34
18
00
38
6c
f8
c0
c8
70
ENDCHAR
STARTCHAR iacute
ENCODING 237
SWIDTH 339 0
DWIDTH 4 0
BBX 4 9 0 0
BITMAP
30
60
00
e0
60
e0
c0
d0
e0
ENDCHAR
STARTCHAR icircumflex
ENCODING 238
SWIDTH 339 0
DWIDTH 4 0
BBX 4 9 0 0
BITMAP
60
b0
00
e0
60
e0
c0
d0
e0
ENDCHAR
STARTCHAR dcaron
ENCODING 239
SWIDTH 960 0
DWIDTH 12 0
BBX 12 11 0 0
BITMAP
0030
0730
0320
0740
0600
3e00
6600
ee00
cc00
dd00
6e00
ENDCHAR
STARTCHAR dstroke
ENCODING 240
SWIDTH 880 0
DWIDTH 11 0
BBX 11 10 0 0
BITMAP
0700
0300
3fe0
0600
3e00
6600
ee00
cc00
dd00
6e00
ENDCHAR
STARTCHAR nacute
ENCODING 241
SWIDTH 635 0
DWIDTH 8 0
BBX 8 9 0 0
BITMAP
0c
18
00
ec
76
66
ee
cd
ce
ENDCHAR
STARTCHAR ncaron
ENCODING 242
SWIDTH 635 0
DWIDTH 8 0
BBX 8 9 0 0
BITMAP
34
18
00
ec
76
66
ee
cd
ce
ENDCHAR
STARTCHAR oacute
ENCODING 243
SWIDTH 562 0
DWIDTH 7 0
BBX 6 9 0 0
BITMAP
0c
18
00
38
6c
ec
dc
d8
70
ENDCHAR
STARTCHAR ocircumflex
ENCODING 244
SWIDTH 562 0
DWIDTH 7 0
BBX 6 9 0 0
BITMAP
18
2c
00
38
6c
ec
dc
d8
70
ENDCHAR
STARTCHAR odoubleacute
ENCODING 245
SWIDTH 562 0
DWIDTH 7 0
BBX 7 9 0 0
BITMAP
36
6c
00
38
6c
ec
dc
d8
70
ENDCHAR
STARTCHAR odiaeresis
ENCODING 246
SWIDTH 562 0
DWIDTH 7 0
BBX 6 9 0 0
BITMAP
28
28
00
38
6c
ec
dc
d8
70
ENDCHAR
STARTCHAR division
ENCODING 247
SWIDTH 600 0
DWIDTH 7 0
BBX 6 5 0 1
BITMAP
30
00
fc
00
30
ENDCHAR
STARTCHAR rcaron
ENCODING 248
SWIDTH 440 0
DWIDTH 6 0
BBX 6 9 0 0
BITMAP
68
30
00
ec
7c
60
e0
c0
c0
ENDCHAR
STARTCHAR uring
ENCODING 249
SWIDTH 634 0
DWIDTH 8 0
BBX 8 10 0 0
BITMAP
18
24
18
00
e6
66
ee
cc
dd
6e
ENDCHAR
STARTCHAR uacute
ENCODING 250
SWIDTH 634 0
DWIDTH 8 0
BBX 8 9 0 0
BITMAP
0c
18
00
e6
66
ee
cc
dd
6e
ENDCHAR
STARTCHAR udoubleacute
ENCODING 251
SWIDTH 634 0
DWIDTH 8 0
BBX 8 9 0 0
BITMAP
36
6c
00
e6
66
ee
cc
dd
6e
ENDCHAR
STARTCHAR udiaeresis
ENCODING 252
SWIDTH 634 0
DWIDTH 8 0
BBX 8 9 0 0
BITMAP
14
14
00
e6
66
ee
cc
dd
6e
ENDCHAR
STARTCHAR yacute
ENCODING 253
SWIDTH 489 0
DWIDTH 6 0
BBX 7 12 -1 -3
BITMAP
06
0c
00
76
36
34
38
38
30
30
a0
c0
ENDCHAR
STARTCHAR tcedilla
ENCODING 254
SWIDTH 359 0
DWIDTH 5 0
BBX 4 11 0 -3
BITMAP
20
60
f0
60
e0
c0
d0
e0
40
60
c0
ENDCHAR
STARTCHAR abovedot
ENCODING 255
SWIDTH 402 0
DWIDTH 5 0
BBX 1 2 2 7
BITMAP
80
80
ENDCHAR
ENDFONT
